<svg width="450" height="350" xmlns="http://www.w3.org/2000/svg">

 <g>
  <title>background</title>
  <rect fill="none" id="canvas_background" height="352" width="452" y="-1" x="-1"/>
 </g>
 <g>
  <title>Layer 1</title>
  <g id="svg_1">
   <circle id="svg_2" r="11.945049" cy="146.092099" cx="87.699008"/>
   <path id="svg_3" d="m157.81041,58.150002l4.5233,17.498695c36.638885,-9.422379 75.539383,-9.422379 112.178253,0l4.523315,-17.498695c-39.805191,-10.319748 -81.87204,-10.319748 -121.224869,0z"/>
   <path id="svg_4" d="m414.734772,144.746033c-14.474609,-78.968414 -97.251343,-137.746032 -196.311935,-137.746032c-40.257492,0 -78.253357,9.871055 -110.368904,27.369727c-11.760628,-7.17894 -24.878235,-13.011829 -39.352844,-16.152622c-2.261658,-0.448677 -4.975655,0 -6.784981,1.346048c-2.261654,1.34605 -3.618656,3.589472 -4.07098,5.832891c-2.261662,11.217106 -2.713997,31.407894 -0.452335,49.355251c-7.689636,8.973694 -14.474609,18.396057 -20.354923,28.715805c-0.904663,1.346062 -1.356991,3.140778 -2.261658,4.935509c-0.452328,0.8974 -0.904663,2.692108 -1.809326,3.5895c-4.070984,0 -10.855959,0 -17.1886,2.692101c-9.046631,3.589485 -14.022279,11.217094 -14.022279,21.536842l0,67.302643c0,17.049973 13.569947,26.023697 26.687563,34.997375c8.141972,5.384186 16.283939,11.217072 23.068909,19.293381c0,0 0.452335,0.448669 0.452335,0.448669c10.855957,13.460571 23.973572,25.575043 39.352852,35.894745c0.452324,0 0.452324,0.4487 0.904655,0.4487c4.975655,3.140808 5.880318,7.178986 7.689644,18.396057c0.452332,2.243469 0.904655,4.486877 1.356995,6.730255c4.070984,21.088135 10.855949,28.26712 40.709846,28.26712c24.878235,0 33.020187,-5.832886 37.995834,-16.152618c0.452347,-0.4487 0.452347,-0.897369 0.904663,-1.3461l0.904694,-1.794708c0,0 0,0 0.452301,0c24.425934,3.589478 48.851822,3.589478 73.277725,0c0.452332,0 0.452332,0 0.904648,0c0,0 0,0.4487 0.452362,0.4487l0.904663,1.346008c0.452332,0.44873 0.452332,0.8974 0.904633,1.3461c5.428009,10.319733 13.117645,16.152618 37.99585,16.152618c29.853912,0 36.638885,-7.627625 40.709869,-28.26712c0.452332,-2.243378 0.904663,-4.935547 1.356964,-6.730255c1.809357,-11.217072 2.71402,-15.255249 7.689667,-18.396057c0.452301,-0.4487 1.356995,-0.897339 1.809326,-1.346039c34.829498,-23.780304 57.898468,-56.534241 66.492767,-92.877655c13.117584,-2.692093 23.52121,-13.90918 23.52121,-27.818405c-1.356995,-13.909195 -10.855927,-25.126312 -23.52121,-27.818436zm-6.785004,38.138153c0,0 -0.904663,0 -0.904663,0c-4.523285,-0.448624 -9.0466,2.692123 -9.951324,7.17897c-6.332642,34.997406 -28.496857,66.853928 -62.421753,89.736862c-0.452332,0.448669 -0.904663,0.897369 -1.356964,1.346008c-9.951294,7.627655 -11.76062,17.498688 -13.569977,28.71582c-0.452301,2.243378 -0.904633,4.038147 -1.356995,6.730225c-2.261658,12.563202 -2.713989,13.90921 -23.068909,13.90921c-18.545563,0 -20.354919,-3.589447 -22.164246,-6.281555c-0.452332,-0.897339 -0.904663,-1.794708 -1.356964,-2.243408l-0.452362,-0.897369c-2.261658,-4.038177 -5.427979,-9.871063 -14.022247,-9.871063c-0.904694,0 -2.261673,0 -3.166336,0.448669c-0.452332,0 -0.904678,0 -1.35701,0c-23.068924,3.589539 -46.137817,3.589539 -69.206711,0c-0.452362,0 -0.904663,0 -1.357025,0c-9.498962,-0.897339 -13.117599,2.243439 -16.736252,8.973694l-0.452316,0.4487c-0.452332,0.897339 -0.904663,1.346069 -1.356995,2.243439c-1.35701,3.140747 -3.166321,6.730225 -22.164246,6.730225c-20.354935,0 -20.807266,-0.897339 -23.068924,-13.90921c-0.452324,-2.243408 -0.904663,-4.486847 -1.356995,-6.730255c-2.26165,-12.114471 -4.070992,-22.434204 -15.379272,-30.061859c0,0 0,0 -0.452324,-0.4487c-14.022285,-9.422363 -26.235245,-20.639465 -36.186539,-33.202621c-0.452324,-0.448654 -0.452324,-0.448654 -0.904663,-0.897354c-7.689629,-8.973679 -17.188591,-15.703964 -25.782894,-21.53685c-11.760622,-8.076294 -18.545593,-13.01181 -18.545593,-20.190781l0,-67.302643c0,-3.589447 1.356993,-4.486847 2.713991,-4.935471c3.166317,-1.346069 7.689634,-1.346069 10.403624,-1.346069c11.760624,0 15.831608,-9.871048 17.64093,-14.806587c0.452335,-0.897354 0.904663,-2.243431 1.356998,-3.140778c3.166317,-5.384201 6.784969,-10.768433 10.403622,-16.152664l15.379276,-4.038132c-4.070992,-14.35791 -5.427979,-37.68948 -4.070992,-53.393421c25.782906,8.076313 46.137833,24.677631 58.803123,48.906582l15.831589,-8.525009c-6.784958,-12.563171 -15.379257,-23.331577 -25.330559,-32.30526c28.49688,-13.460529 61.064766,-21.088163 95.441963,-21.088163c92.727951,0 170.076675,55.636854 179.575668,129.221075c0.452332,4.486832 4.523315,7.627594 9.0466,7.627594c0.452332,0 0.904663,0 1.357025,0c5.88028,0 10.403625,4.935532 10.403625,10.319763c0,5.83287 -4.523346,10.768387 -10.855988,10.768387z"/>
  </g>
 </g>
</svg>