<svg xmlns="http://www.w3.org/2000/svg" xmlns:xlink="http://www.w3.org/1999/xlink" version="1.1" x="0px" y="0px" viewBox="0 0 100 125" enable-background="new 0 0 100 100" xml:space="preserve"><g><circle cx="20.9" cy="43" r="3"/><path d="M36.4,23.4l1,3.9c8.1-2.1,16.7-2.1,24.8,0l1-3.9C54.4,21.1,45.1,21.1,36.4,23.4z"/><path d="M93.2,42.7C90,25.1,71.7,12,49.8,12c-8.9,0-17.3,2.2-24.4,6.1c-2.6-1.6-5.5-2.9-8.7-3.6c-0.5-0.1-1.1,0-1.5,0.3   c-0.5,0.3-0.8,0.8-0.9,1.3c-0.5,2.5-0.6,7-0.1,11c-1.7,2-3.2,4.1-4.5,6.4c-0.2,0.3-0.3,0.7-0.5,1.1c-0.1,0.2-0.2,0.6-0.4,0.8   c-0.9,0-2.4,0-3.8,0.6c-2,0.8-3.1,2.5-3.1,4.8v15c0,3.8,3,5.8,5.9,7.8c1.8,1.2,3.6,2.5,5.1,4.3c0,0,0.1,0.1,0.1,0.1   c2.4,3,5.3,5.7,8.7,8c0.1,0,0.1,0.1,0.2,0.1c1.1,0.7,1.3,1.6,1.7,4.1c0.1,0.5,0.2,1,0.3,1.5c0.9,4.7,2.4,6.3,9,6.3   c5.5,0,7.3-1.3,8.4-3.6c0.1-0.1,0.1-0.2,0.2-0.3l0.2-0.4c0,0,0,0,0.1,0c5.4,0.8,10.8,0.8,16.2,0c0.1,0,0.1,0,0.2,0   c0,0,0,0.1,0.1,0.1l0.2,0.3c0.1,0.1,0.1,0.2,0.2,0.3c1.2,2.3,2.9,3.6,8.4,3.6c6.6,0,8.1-1.7,9-6.3c0.1-0.5,0.2-1.1,0.3-1.5   c0.4-2.5,0.6-3.4,1.7-4.1c0.1-0.1,0.3-0.2,0.4-0.3c7.7-5.3,12.8-12.6,14.7-20.7c2.9-0.6,5.2-3.1,5.2-6.2   C98.1,45.8,96,43.3,93.2,42.7z M91.7,51.2c0,0-0.2,0-0.2,0c-1-0.1-2,0.6-2.2,1.6c-1.4,7.8-6.3,14.9-13.8,20   c-0.1,0.1-0.2,0.2-0.3,0.3c-2.2,1.7-2.6,3.9-3,6.4c-0.1,0.5-0.2,0.9-0.3,1.5c-0.5,2.8-0.6,3.1-5.1,3.1c-4.1,0-4.5-0.8-4.9-1.4   c-0.1-0.2-0.2-0.4-0.3-0.5l-0.1-0.2c-0.5-0.9-1.2-2.2-3.1-2.2c-0.2,0-0.5,0-0.7,0.1c-0.1,0-0.2,0-0.3,0c-5.1,0.8-10.2,0.8-15.3,0   c-0.1,0-0.2,0-0.3,0c-2.1-0.2-2.9,0.5-3.7,2L38,82c-0.1,0.2-0.2,0.3-0.3,0.5C37.4,83.2,37,84,32.8,84c-4.5,0-4.6-0.2-5.1-3.1   c-0.1-0.5-0.2-1-0.3-1.5c-0.5-2.7-0.9-5-3.4-6.7c0,0,0,0-0.1-0.1c-3.1-2.1-5.8-4.6-8-7.4c-0.1-0.1-0.1-0.1-0.2-0.2   C14,63,11.9,61.5,10,60.2c-2.6-1.8-4.1-2.9-4.1-4.5v-15c0-0.8,0.3-1,0.6-1.1c0.7-0.3,1.7-0.3,2.3-0.3c2.6,0,3.5-2.2,3.9-3.3   c0.1-0.2,0.2-0.5,0.3-0.7c0.7-1.2,1.5-2.4,2.3-3.6l3.4-0.9c-0.9-3.2-1.2-8.4-0.9-11.9c5.7,1.8,10.2,5.5,13,10.9l3.5-1.9   c-1.5-2.8-3.4-5.2-5.6-7.2C35,17.7,42.2,16,49.8,16c20.5,0,37.6,12.4,39.7,28.8c0.1,1,1,1.7,2,1.7c0.1,0,0.2,0,0.3,0   c1.3,0,2.3,1.1,2.3,2.3C94.1,50.1,93.1,51.2,91.7,51.2z"/></g></svg>